<svg width="45" height="40" viewBox="0 0 45 40" fill="none" xmlns="http://www.w3.org/2000/svg">
<g clip-path="url(#clip0_414_191)">
<path d="M28.0305 6.66082C21.1399 6.66082 15.224 10.7944 12.6461 16.6999H7.13748C7.16313 16.6329 7.18878 16.566 7.21443 16.5023C8.1026 14.3893 10.5555 9.50681 15.3299 6.31344C17.1832 5.12788 19.1519 4.26739 21.1976 3.78297C21.2265 3.77659 21.2585 3.77022 21.2906 3.76384C21.3739 3.74472 21.4605 3.7256 21.5471 3.70648C22.1948 3.56944 22.8521 3.46745 23.5126 3.40371V0C23.1182 0.035057 22.7335 0.0860489 22.3423 0.143415C20.6012 0.404749 18.9114 0.911481 17.2794 1.64449C16.2309 2.11617 15.2144 2.67708 14.2236 3.32722C12.7936 4.26739 11.4212 5.37965 10.1323 6.65764C8.91383 7.86232 7.75952 9.21361 6.68216 10.6892C4.96673 13.2738 3.95992 15.6258 3.52064 16.7827C3.47896 16.9006 3.4501 16.9708 3.43407 17.0154L3.42124 17.0504L3.25451 17.5412C1.18317 23.6411 0 30.6876 0 38.1993V38.2248C0 38.8176 0.00961924 39.4104 0.0224449 40H3.3507C3.33788 39.455 3.33146 38.9037 3.33146 38.3523C3.33146 31.717 4.28697 25.48 5.97355 20.0366H11.5912C11.3731 21.1011 11.2609 22.2006 11.2609 23.332C11.2609 32.5392 18.7703 40.0032 28.0273 40.0032C37.2842 40.0032 44.8 32.5392 44.8 23.332C44.8 14.1248 37.2906 6.66082 28.0273 6.66082H28.0305ZM28.0305 36.6696C20.6204 36.6696 14.6148 30.6972 14.6148 23.332C14.6148 15.9669 20.6204 9.99761 28.0305 9.99761C35.4405 9.99761 41.4493 15.97 41.4493 23.332C41.4493 30.694 35.4405 36.6696 28.0305 36.6696Z" fill="#F7F4EE"/>
</g>
<defs>
<clipPath id="clip0_414_191">
<rect width="44.8" height="40" fill="white"/>
</clipPath>
</defs>
</svg>
