<?xml version="1.0" encoding="utf-8"?>
<!-- Generator: Adobe Illustrator 16.0.0, SVG Export Plug-In . SVG Version: 6.00 Build 0)  -->
<!DOCTYPE svg PUBLIC "-//W3C//DTD SVG 1.1//EN" "http://www.w3.org/Graphics/SVG/1.1/DTD/svg11.dtd">
<svg version="1.1" id="Layer_1" xmlns="http://www.w3.org/2000/svg" xmlns:xlink="http://www.w3.org/1999/xlink" x="0px" y="0px"
	 width="45px" height="40px" viewBox="0 0 45 40" enable-background="new 0 0 45 40" xml:space="preserve">
<g>
	<path fill="#61B5AC" d="M28.03,6.661c-6.891,0-12.806,4.134-15.384,10.039H7.138c0.025-0.067,0.051-0.134,0.077-0.197
		c0.888-2.113,3.341-6.996,8.116-10.189c1.853-1.186,3.822-2.046,5.868-2.53c0.029-0.007,0.061-0.013,0.093-0.02
		c0.083-0.019,0.17-0.038,0.256-0.057c0.648-0.137,1.305-0.239,1.966-0.303V0c-0.395,0.035-0.779,0.086-1.17,0.144
		c-1.741,0.261-3.431,0.768-5.063,1.501c-1.048,0.472-2.065,1.033-3.056,1.683c-1.43,0.94-2.802,2.053-4.091,3.331
		c-1.218,1.205-2.373,2.556-3.45,4.032c-1.715,2.584-2.722,4.937-3.162,6.093c-0.042,0.118-0.07,0.188-0.086,0.233L3.421,17.05
		l-0.167,0.491C1.183,23.641,0,30.688,0,38.199v0.025C0,38.817,0.01,39.41,0.022,40h3.328c-0.013-0.545-0.019-1.096-0.019-1.647
		c0-6.636,0.956-12.872,2.642-18.316h5.618c-0.218,1.065-0.331,2.165-0.331,3.295c0,9.207,7.51,16.671,16.767,16.671
		S44.8,32.539,44.8,23.332S37.291,6.661,28.027,6.661H28.03z M28.03,36.67c-7.41,0-13.416-5.973-13.416-13.338
		S20.621,9.998,28.03,9.998c7.41,0,13.419,5.972,13.419,13.334C41.449,30.693,35.44,36.67,28.03,36.67z"/>
</g>
</svg>
