<svg width="243" height="40" viewBox="0 0 243 40" fill="none" xmlns="http://www.w3.org/2000/svg">
<path d="M11.2804 18.2911C12.0664 17.1023 12.5287 15.6757 12.5287 14.1435C12.5287 12.6112 12.0598 11.155 11.2573 9.95955C9.93643 7.98811 7.70412 6.67712 5.1647 6.62099H0V39.9967H3.33856V21.6264H4.98638L11.7031 39.9967H15.0417L8.12681 20.9857C9.41468 20.3979 10.5044 19.4568 11.2804 18.2878V18.2911ZM5.13498 18.2911C5.08545 18.2911 5.03591 18.2977 4.98638 18.2977H3.33526V9.92653H4.99959C5.1647 9.92653 5.32981 9.93973 5.49162 9.95955C7.56543 10.2072 9.17362 11.9706 9.17362 14.1138C9.17362 16.3758 7.3772 18.2151 5.13498 18.2911ZM17.4325 6.62429H27.4449V9.96285H20.7711V16.6367H27.4449V19.9752H20.7711V36.6614H27.4449V40H17.4325V6.62429ZM59.0506 6.66061C52.2018 6.66061 46.3205 10.7917 43.7579 16.6994H38.2828C38.3093 16.6334 38.3324 16.5673 38.3588 16.5013C39.2405 14.3878 41.6775 9.50714 46.4262 6.31388C48.2688 5.12507 50.2237 4.26649 52.2612 3.78436C52.2909 3.77776 52.3206 3.77115 52.3504 3.76455C52.4362 3.74474 52.5221 3.72823 52.6046 3.70841C53.2486 3.56972 53.9024 3.46735 54.5596 3.40461V0C54.1699 0.0330224 53.7802 0.0858582 53.3939 0.141996C51.6635 0.406175 49.9827 0.911418 48.3646 1.64451C47.3244 2.11673 46.3106 2.67811 45.3265 3.32535C43.9032 4.26319 42.5427 5.37934 41.2582 6.66061C40.0462 7.86593 38.9004 9.21655 37.8304 10.6926C36.1232 13.2783 35.1259 15.6295 34.6867 16.7853C34.5051 17.2641 34.6041 17.0065 34.6041 17.0065L34.4225 17.5415C32.3652 23.6374 31.1896 30.6877 31.1896 38.197C31.1896 38.2036 31.1896 38.2135 31.1896 38.2201C31.1896 38.8145 31.1995 39.4089 31.2127 39.9967H34.5216C34.5084 39.4518 34.5018 38.9037 34.5018 38.3522C34.5018 31.718 35.4561 25.4768 37.1304 20.0314H42.7111C42.4965 21.098 42.3842 22.2009 42.3842 23.327C42.3842 32.5336 49.8473 39.9967 59.0539 39.9967C68.2606 39.9967 75.7236 32.5336 75.7236 23.327C75.7236 14.1204 68.2606 6.65731 59.0539 6.65731L59.0506 6.66061ZM59.0506 36.6647C51.6866 36.6647 45.7162 30.6943 45.7162 23.3303C45.7162 15.9663 51.6866 9.99587 59.0506 9.99587C66.4146 9.99587 72.385 15.9663 72.385 23.3303C72.385 30.6943 66.4146 36.6647 59.0506 36.6647ZM90.0685 18.2911C90.8545 17.1023 91.3168 15.6757 91.3168 14.1435C91.3168 12.6112 90.8478 11.155 90.0454 9.95955C88.7245 7.98811 86.4922 6.67712 83.9528 6.62099H78.7881V39.9967H82.1266V21.6264H83.7745L90.4912 39.9967H93.8298L86.9149 20.9857C88.2028 20.3979 89.2925 19.4568 90.0685 18.2878V18.2911ZM83.9264 18.2911C83.8768 18.2911 83.8273 18.2977 83.7778 18.2977H82.1266V9.92653H83.791C83.9561 9.92653 84.1212 9.93973 84.283 9.95955C86.3568 10.2072 87.965 11.9706 87.965 14.1138C87.965 16.3758 86.1686 18.2151 83.9264 18.2911ZM166.647 6.62429V9.96285H158.999V40H155.661V9.96285H150.949C146.728 9.96945 143.122 13.45 141.656 18.3803L138.456 29.2314C136.571 35.433 131.806 39.8613 126.202 39.9901L122.807 40.0033L117.863 14.8006L112.276 36.2553C111.949 37.3384 110.417 37.3384 110.09 36.2553L104.503 14.8006L99.5592 40.0033H96.1612L103.667 6.11244C103.902 5.18451 105.216 5.17461 105.464 6.09923L111.18 30.2287L116.896 6.09923C117.144 5.17461 118.458 5.18451 118.692 6.11244L125.422 36.6647H125.947C130.171 36.6647 133.784 33.1809 135.253 28.2473L138.453 17.3962C140.332 11.2144 145.071 6.79931 150.648 6.6408L166.641 6.62759L166.647 6.62429ZM187.468 6.95781C186.391 6.73987 185.275 6.62429 184.129 6.62429V40C185.272 40 186.388 39.8844 187.465 39.6665C195.083 38.121 200.816 31.3878 200.816 23.3138C200.816 15.2398 195.083 8.50656 187.465 6.96112L187.468 6.95781ZM187.468 36.2421V10.3822C193.227 11.8649 197.48 17.0924 197.48 23.3105C197.48 29.5286 193.227 34.7593 187.468 36.2388V36.2421ZM203.24 6.62429H206.578V40H203.24V6.62429ZM225.688 6.62429C216.472 6.62429 209.002 14.0972 209.002 23.3105C209.002 32.5237 216.472 39.9967 225.688 39.9967C234.905 39.9967 242.374 32.5237 242.374 23.3105C242.374 14.0972 234.905 6.62429 225.688 6.62429ZM225.688 36.6614C218.314 36.6614 212.337 30.6844 212.337 23.3105C212.337 15.9366 218.314 9.95955 225.688 9.95955C233.062 9.95955 239.039 15.9366 239.039 23.3105C239.039 30.6844 233.062 36.6614 225.688 36.6614ZM180.821 6.62429V34.2343C180.821 34.865 180.741 35.4958 180.537 36.0902C180.358 36.6053 180.111 37.0874 179.804 37.5233C178.757 39.0126 177.03 39.9868 175.071 39.9868C173.113 39.9868 171.386 39.0159 170.343 37.5266C169.732 36.6647 169.359 35.6245 169.299 34.5051V6.62429H172.595V34.3697C172.595 35.7302 173.698 36.8332 175.058 36.8332C176.419 36.8332 177.522 35.7302 177.522 34.3697V6.62429H180.817H180.821Z" fill="#62B6AD"/>
</svg>
