<svg width="124" height="40" viewBox="0 0 124 40" fill="none" xmlns="http://www.w3.org/2000/svg">
<g clip-path="url(#clip0_414_205)">
<path d="M85.4034 20.9896C86.6653 20.4032 87.7394 19.463 88.5003 18.2902C89.2769 17.1014 89.7278 15.6768 89.7278 14.1471C89.7278 12.6173 89.2675 11.1577 88.4784 9.96255C87.182 7.9898 84.987 6.67995 82.4913 6.62258H77.4155V40H80.6971V21.6301H82.316L88.9168 40H92.1984L85.4066 20.9896H85.4034ZM82.4631 18.2902C82.413 18.2934 82.3661 18.2997 82.316 18.2997H80.6939V9.9275H82.3285C82.4913 9.9275 82.6541 9.94024 82.8076 9.95936C84.8492 10.208 86.4274 11.9704 86.4274 14.1088C86.4274 16.3716 84.6613 18.2105 82.46 18.287L82.4631 18.2902ZM58.0201 6.66082C51.2909 6.66082 45.5105 10.7944 42.9929 16.6999H37.6133C37.6384 16.6329 37.6634 16.5692 37.6885 16.5023C38.5559 14.3893 40.9482 9.50681 45.6138 6.31344C47.4237 5.12788 49.3464 4.26739 51.3441 3.78297C51.3723 3.77659 51.4068 3.77022 51.4349 3.76384C51.5164 3.74472 51.6009 3.7256 51.6855 3.70648C52.318 3.56625 52.9599 3.46427 53.6049 3.40371V0C53.2229 0.03187 52.8409 0.0860489 52.462 0.146602C50.7617 0.407936 49.1115 0.911481 47.5177 1.64449C46.4969 2.11617 45.498 2.67708 44.5335 3.32722C43.1338 4.2642 41.7999 5.38284 40.5348 6.66082C39.3449 7.86551 38.2177 9.21679 37.1656 10.6924C35.4872 13.277 34.5071 15.629 34.0781 16.7859C34.0374 16.9006 34.0092 16.9739 33.9935 17.0186L33.981 17.0504L33.8182 17.5412C31.7954 23.6411 30.643 30.6876 30.643 38.1962V38.2217C30.643 38.8176 30.6524 39.4072 30.6649 39.9968H33.9152C33.9027 39.4518 33.8965 38.9005 33.8965 38.3491C33.8965 31.7138 34.8296 25.4769 36.4767 20.0303H41.9627C41.7529 21.0979 41.6402 22.1974 41.6402 23.3256C41.6402 32.5329 48.9737 39.9968 58.017 39.9968C67.0602 39.9968 74.3969 32.5329 74.3969 23.3256C74.3969 14.1184 67.0633 6.65445 58.017 6.65445L58.0201 6.66082ZM58.0201 36.6696C50.7836 36.6696 44.9187 30.7003 44.9187 23.332C44.9187 15.9637 50.7836 9.99761 58.0201 9.99761C65.2566 9.99761 71.1246 15.9669 71.1246 23.332C71.1246 30.6972 65.2597 36.6696 58.0201 36.6696ZM26.9669 9.96255V6.62258H17.1283V40H26.9669V36.6632H20.4099V19.9729H26.9669V16.6329H20.4099V9.95936H26.9669V9.96255ZM7.98485 20.9896C9.2499 20.4032 10.3208 19.463 11.0848 18.2902C11.8583 17.1014 12.3092 15.6768 12.3092 14.1471C12.3092 12.6173 11.852 11.1577 11.0629 9.96255C9.7603 7.9898 7.57151 6.67995 5.07586 6.62258H0V40H3.28162V21.6301H4.9005L11.5013 40H14.7829L7.98798 20.9896H7.98485ZM5.04455 18.2902C4.99758 18.2934 4.95061 18.2997 4.9005 18.2997H3.27848V9.9275H4.91303C5.07586 9.9275 5.23556 9.94024 5.39212 9.95936C7.43061 10.208 9.00879 11.9704 9.00879 14.1088C9.00879 16.3716 7.24586 18.2105 5.04141 18.287L5.04455 18.2902ZM124 39.9904L120.665 40L115.812 14.8004L110.322 36.2521C110 37.3357 108.497 37.3357 108.174 36.2521L102.685 14.8004L97.8285 40H94.4936L101.868 6.10947C102.096 5.18206 103.39 5.1725 103.634 6.09672L109.252 30.2287L114.869 6.09672C115.11 5.1725 116.403 5.18206 116.635 6.10947L124.006 39.9904H124Z" fill="#61B5AC"/>
</g>
<defs>
<clipPath id="clip0_414_205">
<rect width="124" height="40" fill="white"/>
</clipPath>
</defs>
</svg>
